<?xml version="1.0" encoding="utf-8"?>
<!-- Generator: Adobe Illustrator 26.1.0, SVG Export Plug-In . SVG Version: 6.00 Build 0)  -->
<svg version="1.1" id="Calque_1" xmlns="http://www.w3.org/2000/svg" xmlns:xlink="http://www.w3.org/1999/xlink" x="0px" y="0px"
	 viewBox="0 0 1366 768" style="enable-background:new 0 0 1366 768;" xml:space="preserve">
<style type="text/css">
	.st0{fill:#FFFFFF;}
</style>
<g>
	<path class="st0" d="M261,258c4.46,3.47,6.35,7.63,4.31,13.36c-1.26,3.55,1.49,3.76,4.01,3.62c5.27-0.29,10.54-0.59,15.81-0.99
		c4.12-0.31,5.58,1.94,5.88,5.63c0.91,11.55-3.41,20.14-13.84,25.67c-2.42,1.29-6.34,4.65-5.98,5.44c1.56,3.45,4.01,6.82,6.96,9.21
		c2.78,2.26,6.58,3.26,11.03,5.33c-2.05,1.25-3.16,2.49-4.33,2.55c-7.38,0.44-14.48-0.17-20.25-5.79c-2.72-2.65-4.68-6.69-9.59-6.24
		c-0.57,0.05-1.68-1.24-1.77-2.01c-0.08-0.61,0.88-1.55,1.59-2.03c5.88-3.92,12.07-7.42,17.65-11.72
		c6.16-4.75,4.44-12.56,6.01-19.05c0.17-0.71-2.15-2.97-2.79-2.78c-6.06,1.79-13.7-1.46-18.14,5.56
		c-3.47,5.49-7.3,10.78-10.43,16.46c-1.15,2.09-2.19,5.73,3,5.06c-2.33,5.33-11.74,6.54-16.13,2.73c0-1.33,0-2.67,0-4
		c1.77-2.89,3.54-5.77,5.3-8.67c4.16-6.86,8.5-13.63,12.37-20.65c1.37-2.48,1.87-5.55,2.25-8.42c0.41-3.01-1.49-3.82-4.1-2.89
		c-2.34,0.83-4.54,2.05-6.91,2.75c-1.13,0.33-2.5-0.16-3.77-0.28c0.8-0.85,1.43-2.08,2.41-2.47c4.77-1.91,9.62-3.59,14.44-5.35
		C257.67,258,259.33,258,261,258z"/>
	<path class="st0" d="M1012,370c-3.49,6.67-6.97,13.36-10.48,20.02c-5.75,10.89-12.18,12.15-21.06,8.11
		c-7.45-3.39-9.82-13.84-4.96-21.66c1.77-2.85,4.63-5.12,7.32-7.24c1.14-0.9,3.12-0.75,6.05-1.35c-1.34,2.23-1.69,3.38-2.46,4
		c-6.09,4.92-4.51,17.62,3.42,22.33c1.04,0.62,3.96-0.37,4.96-1.53c5.85-6.71,8.13-14.78,7.08-23.53
		c-0.72-6.06-10.27-11.29-18.53-12.29c-13.68-1.66-27.6-2.58-40.31-8.89c-5.75-2.85-8.46-7.54-7.92-13.64
		c0.45-5.12,1.18-10.47,6.79-15.24c1.11,3.52,2.69,6.27,2.69,9.02c0,7,4.11,10.79,9.53,13.71c7.42,3.99,15.1,6.97,23.77,7.39
		c6.38,0.3,12.67,2.16,19.05,2.65c6.75,0.52,10.9,4.7,15.07,9.15C1012,364,1012,367,1012,370z"/>
	<path class="st0" d="M500,465c1.82-8.31,3.83-16.58,5.38-24.94c0.92-4.95,1.96-10.13-1.61-15.06
		c-8.23,7.09-12.38,17.57-20.58,24.31c-0.39-0.33-0.78-0.65-1.17-0.98c5.87-8.76,11.61-17.59,17.66-26.22
		c2.1-2.99,3.33-5.57,2.61-9.5c-2.07-11.37-3.22-22.74,1.43-34c3.98-9.62,12.06-12.74,20.66-7.28c1.8,1.14,3.6,2.28,5.51,3.48
		c-0.13,5.25-4.26,6.48-7.83,5.94c-3.12-0.47-5.9-3.27-9.26-5.3c-2.67,9.24-2.4,18.72-0.27,29.88c3.14-3.65,5.41-6.52,7.95-9.12
		c1.53-1.56,3.49-2.7,5.25-4.02c0.59,0.58,1.17,1.16,1.76,1.74c-1.5,2.13-2.88,4.38-4.55,6.38c-1.81,2.17-3.9,4.09-5.85,6.14
		c-3,3.14-3.96,6.78-4.28,11.21c-0.6,8.32-1.67,16.72-3.7,24.8c-1.94,7.71-5.35,15.05-8.12,22.55C500.67,465,500.33,465,500,465z"/>
	<path class="st0" d="M594.56,434.38c-2.12-3.8-3.93-6.74-5.44-9.82c-2.5-5.09-1.07-10.16,2.18-13.93
		c4.62-5.36,10.16-9.95,15.51-14.63c1.08-0.95,3.04-0.97,4.63-1.23c3.73-0.6,7.48-1.08,12.03-1.73c-2.4,3.7-4.84,6.63-6.35,9.97
		c-2.83,6.26,0.35,12.4,1.58,18.41c1.47,7.24,2.28,14.23-1.83,20.66c-2.55,3.98-6,7.4-9.5,10.96c0.97-8.37,8.05-16.7-0.87-25.54
		c-6.55,5.85-13.25,11.83-20.42,18.24c7.02,4.31,13.42-0.9,19.64,0.54c-2.35,9.61-14.5,11.21-21.29,8.83
		c-4.26-1.49-8.14-4.15-13.12-1.37c-1.36,0.76-4.26-1.26-7.74-2.44c5.95-4.2,9.94-7.66,16.01-7.48
		C586.57,444.02,589.24,437.09,594.56,434.38z M607.87,402.74c-5.18-0.59-6.99,4.53-9.27,7.86c-1.45,2.11-1.57,6.14-0.55,8.59
		c0.75,1.81,4.3,2.45,6.61,3.61c0.76-2.18,1.9-4.3,2.2-6.54C607.42,411.94,607.53,407.57,607.87,402.74z"/>
	<path class="st0" d="M805.81,398.74c-0.73,11.28-3.15,24.61,14.06,28.43c-12.21,6.39-16.57,7.42-23.32-4.25
		c-1.84,1.35-3.73,2.57-5.44,4c-4.15,3.45-13.26,3.11-16-1.6c-1.22-2.1-2.18-4.85-1.97-7.19c0.62-7.13,1.06-14.62,9.69-17.46
		c1.06-0.35,2.19-1.05,2.87-1.91c2.28-2.87,4.42-2.39,7.67-1.2C796.92,398.84,801.11,398.37,805.81,398.74z M785.56,402.88
		c-0.57,2.31-1.15,4.01-1.38,5.77c-0.24,1.79-0.33,3.64-0.14,5.43c0.61,5.8,4.21,8.3,8.3,5.88c4.18-2.47,4.14-6.63,3.46-10.48
		c-0.29-1.62-2.51-3.16-4.18-4.21C789.88,404.18,787.75,403.71,785.56,402.88z"/>
	<path class="st0" d="M734.28,421.23c-4.65,8.95-13.38,9.12-20.79,12.43c-0.96-2.74-1.93-5.5-2.6-7.4c-4,2.26-8.03,4.97-12.41,6.91
		c-4.92,2.19-7.92,0.25-10.33-4.38c-5-9.62,0.52-16.8,5.04-24.25c2.56-4.23,6.05-6.46,11.45-5.68c3.2,0.46,6.65-0.23,9.89-0.89
		c4.5-0.92,5.37,1.4,5.51,5.08c0.19,4.95,0.22,9.95,1.04,14.81c1.26,7.5,2.48,7.92,9.26,4.73
		C731.31,422.12,732.39,421.87,734.28,421.23z M699.42,426.89c10.33-4,11.42-6.09,11.21-21.94c-3.68-0.82-7.46-1.67-11.23-2.51
		C695.31,410.8,693.24,418.66,699.42,426.89z"/>
	<path class="st0" d="M415.95,344.39c3.41-3.26,7.2-3.24,10.87-1.26c3.89,2.09,7.47,4.84,5.89,10.18c-3,10.13-5.8,20.33-9.34,30.27
		c-1.77,4.96-2.33,9.47-0.1,14.21c1.46,3.1,0.42,4.13-2.85,4.26c-9.03,0.36-12.76-4.03-10.14-13.03c2.82-9.69,6.19-19.22,9.3-28.83
		c0.36-1.1,0.62-2.24,0.92-3.36C422.64,348.89,422.64,348.89,415.95,344.39z"/>
	<path class="st0" d="M874.33,396.23c-2.22,1.35-3.32,2.02-4.31,2.62c-2.09-1.42,2.86-9.1,6.24-9.65c1.39-0.23,3.26,0.43,4.41,1.33
		c1.37,1.07,2.2,2.82,3.64,4.8c5.53-6.55,12.88-4.91,19.86-5.45c4.98-0.38,9.88-1.93,15.27-3.06c-0.01,0.07,0.32,2.07-0.3,2.42
		c-7.62,4.29-14.17,11.37-24.17,9.72c-0.33-0.05-0.67-0.07-1-0.04c-2.66,0.21-5.94-3.09-7.86,1.07c-1.3,2.81,1.98,12.18,4.71,13.32
		c1.67,0.7,3.78,0.35,5.69,0.47c0.15,0.44,0.3,0.87,0.45,1.31c-3.89,2.63-7.51,5.86-11.74,7.74c-4.35,1.93-6.14-2.31-7.04-5.33
		c-1.28-4.34-1.47-9-2.22-13.51C875.59,401.64,875,399.34,874.33,396.23z"/>
	<path class="st0" d="M345.43,363.14c-2.95,4.31-12.6,6.71-15.14,4.18c-0.94-0.93-1.13-3.47-0.59-4.87
		c2.19-5.72,4.84-11.25,7.2-16.9c0.77-1.84,1.18-3.83,2.14-6.99c-4.32,0.74-7.28,1.24-11.76,2.01c1.37-1.94,2.02-3.92,3.03-4.11
		c5.27-1.01,10.61-1.76,15.95-2.1c0.83-0.05,2.8,2.75,2.56,3.88c-0.83,3.97-2.26,7.84-3.73,11.64c-0.95,2.46-2.4,4.73-3.59,7.1
		C339.65,360.62,339.26,363.57,345.43,363.14z"/>
</g>
</svg>
