<?xml version="1.0" encoding="utf-8"?>
<!-- Generator: Adobe Illustrator 25.2.1, SVG Export Plug-In . SVG Version: 6.00 Build 0)  -->
<svg version="1.1" xmlns="http://www.w3.org/2000/svg" xmlns:xlink="http://www.w3.org/1999/xlink" x="0px" y="0px"
	 viewBox="0 0 595.3 841.9" style="enable-background:new 0 0 595.3 841.9;" xml:space="preserve">
<style type="text/css">
	.st0{display:none;}
	.st1{fill:#FFFFFF;}
</style>
<g id="Calque_1" class="st0">
	
		<image style="display:inline;overflow:visible;" width="4096" height="2505" xlink:href="WitcherMap_BW.png"  transform="matrix(1 0 0 1 -1750 -831.11)">
	</image>
</g>
<g id="Calque_2">
	<polygon class="st1" points="40.8,841.9 40.8,822 46.5,813.3 51.8,809.3 55.5,804 66.9,801.3 71.9,796.3 64.9,798.6 57.9,796.3 
		54.5,798 46.5,802.3 42.5,798.3 38.5,796.3 36.5,790.6 34.8,788.3 33.1,783.3 25.4,778.6 21.1,773.2 16.1,766.2 20.7,760.2 
		24.8,755.8 27.1,749.8 32.4,747.8 39.5,747.8 44,747.8 49.2,749.8 53.2,747.8 57.5,747.8 62.5,747.8 65.9,747.8 69.2,747.8 
		74.2,746.2 75.6,743.5 78.6,739.1 82.3,736.8 85.3,735.5 87.6,732.4 87.6,727.1 83.9,722.4 77.9,720.4 76.2,716.1 73.2,709.4 
		70.9,704 68.5,698.7 69.9,693.7 70.2,689.3 70.2,683.6 67.5,678.3 66.9,673 71.2,669.3 74.6,667.3 77.6,662.6 82.6,659.2 
		87.6,659.2 95.6,660.6 102.3,655.9 107,652.2 111.7,650.6 111.7,645.5 109.3,641.5 111.7,638.9 115.3,633.8 119.7,630.2 
		123.4,627.5 128.7,627.5 132.1,627.5 135.1,625.5 138.7,625.5 142.8,623.8 147.4,618.5 149.4,614.8 153.1,607.1 154.8,601.8 
		149.8,603.1 146.4,604.8 142.8,608.8 138.4,609.8 133.1,613.8 130.1,617.1 124.7,617.1 122,614.1 119.7,612.8 116.7,607.4 
		114.3,603.1 111,599.4 113.7,596.4 115.7,594.1 114,589.1 113.7,585.7 117,584 120,584 123.7,584 126.4,585.4 129.4,585.4 
		132.4,584 133.4,579.4 137.1,579.4 142.1,579.4 145.4,578 138.4,574.7 136.1,569.3 133.1,563.3 138.1,558.3 136.1,553.6 
		132.7,549.9 131.7,542.9 133.4,539.6 136.4,539.6 137.7,536.6 134.4,531.9 139.4,526.2 138.4,520.2 140.1,517.9 144.1,515.9 
		146.1,512.8 145.4,508.2 142.4,505.2 136.7,506.8 131.1,505.2 130.1,501.5 130.1,497 129.4,493.8 131.7,491.1 137.7,489.4 
		142.4,489.4 146.1,486.1 150.8,486.1 154.8,487.8 156.8,488.1 160.5,486.1 162.8,484.4 164.1,481.8 160.8,476.1 155.5,476.1 
		153.1,474.4 150.1,470.1 148.8,466.7 145.4,464.4 146.4,460.4 146.1,457.7 143.4,454 144.8,450.3 150.1,446.3 155.8,446.3 
		159.1,444 162.1,444 164.1,444 164.1,436.3 166.5,428.6 170.5,425.3 173.8,420.9 177.2,416.9 175.8,410.9 182.5,408.6 188.2,407.2 
		191.2,407.2 194.6,409.2 198.2,409.6 199.9,412.9 202.9,416.9 208.6,420.9 213.3,422.9 218.6,422.6 222.6,419.9 228.7,416.9 
		233,412.9 237.3,405.5 242,401.9 244,398.5 238.7,398.5 233.3,403.2 227.3,413.9 222.3,416.2 214.3,419.9 210,418.3 205.6,414.9 
		202.2,411.2 199.9,403.9 199.6,398.5 193.9,392.5 187.5,387.2 179.9,379.8 179.9,373.8 206.6,359.8 224.7,351.3 240.8,347 
		261.7,344.2 279.3,339.9 295.5,339.9 327.8,342.7 355.8,345.1 375.3,348.9 386.7,345.1 400,337 422.4,320.4 439,316.6 456.8,308.5 
		475.6,292.4 494.1,288.1 512.2,281.9 528.4,279.5 540.2,282.8 553.1,282.8 568.8,283.3 574.5,289.5 571.1,304.2 579.2,322.7 
		575.9,337 534.1,338.4 519.3,373.6 519.3,389.3 493.7,391.7 482.7,400.7 463.7,411.2 441.9,430.6 436.6,441.6 438.1,454.4 
		436.6,479.6 425.7,505.3 369.6,551.4 356.3,563.7 353.9,584.2 344.9,609.8 333.4,632.6 348.2,670.7 382,681.6 426.2,689.7 
		461.8,706.8 488.4,733.4 516,753.3 534.1,750.5 538.3,756.2 538.3,774.3 531.2,789.9 516,800.9 533.6,821.8 535.5,841.9 	"/>
</g>
</svg>
