<svg xmlns="http://www.w3.org/2000/svg" viewBox="0 0 259.21 65.09"><defs><style>.cls-1{fill:#fff;}</style></defs><g id="Calque_2" data-name="Calque 2"><g id="Calque_2-2" data-name="Calque 2"><path class="cls-1" d="M8.46,0A3.57,3.57,0,0,1,10,4.36c-.38,1.18.53,1.22,1.35,1.15,1.74-.14,3.47-.29,5.2-.47,1.35-.14,1.85.59,2,1.8a8,8,0,0,1-4.32,8.57c-.78.45-2,1.59-1.91,1.84a8.37,8.37,0,0,0,2.37,3,18.37,18.37,0,0,0,3.68,1.65c-.66.43-1,.85-1.4.88-2.43.21-4.77.08-6.72-1.72-.92-.84-1.6-2.15-3.21-2-.19,0-.56-.39-.6-.65s.27-.52.5-.68c1.9-1.34,3.91-2.55,5.7-4,2-1.62,1.35-4.17,1.81-6.32.05-.24-.74-1-.95-.89-2,.65-4.52-.35-5.91,2C6.47,10.34,5.26,12.12,4.29,14c-.36.7-.67,1.9,1,1.64-.72,1.77-3.8,2.25-5.28,1l0-1.31c.56-1,1.11-1.94,1.66-2.91C3,10.19,4.34,7.92,5.54,5.58a8,8,0,0,0,.67-2.79c.1-1-.53-1.25-1.38-.92s-1.47.72-2.25,1a3.52,3.52,0,0,1-1.24-.06c.26-.28.45-.69.77-.83C3.66,1.28,5.24.68,6.81.06Z"/><path class="cls-1" d="M259.21,34.85l-3.45,6.58c-1.9,3.59-4,4-6.93,2.67-2.46-1.11-3.24-4.55-1.64-7.13a10.48,10.48,0,0,1,2.41-2.38c.38-.29,1-.24,2-.44-.44.73-.55,1.11-.81,1.31-2,1.62-1.48,5.8,1.13,7.35.34.21,1.3-.12,1.63-.5a9.61,9.61,0,0,0,2.33-7.74c-.23-2-3.38-3.72-6.1-4.05-4.5-.55-9.08-.85-13.26-2.93a4.27,4.27,0,0,1-2.61-4.48,6.58,6.58,0,0,1,2.23-5,11.31,11.31,0,0,1,.89,3c0,2.3,1.35,3.55,3.14,4.51A18.27,18.27,0,0,0,248,28c2.1.1,4.17.71,6.27.87s3.59,1.55,5,3Z"/><path class="cls-1" d="M88.6,65.09c.6-2.74,1.26-5.46,1.77-8.21.3-1.63.65-3.33-.53-5-2.71,2.34-4.07,5.79-6.77,8l-.39-.33c1.94-2.88,3.82-5.79,5.82-8.63a3.78,3.78,0,0,0,.86-3.12c-.69-3.75-1.06-7.49.47-11.19,1.31-3.17,4-4.2,6.8-2.4l1.81,1.15c0,1.72-1.4,2.13-2.58,2-1-.15-1.94-1.08-3-1.74a20.58,20.58,0,0,0-.08,9.83c1-1.2,1.78-2.15,2.61-3a14.9,14.9,0,0,1,1.73-1.32l.58.57c-.49.7-1,1.44-1.5,2.1s-1.28,1.34-1.92,2a5.46,5.46,0,0,0-1.41,3.69,47.69,47.69,0,0,1-1.22,8.16,74.68,74.68,0,0,1-2.67,7.42Z"/><path class="cls-1" d="M119.93,54.44c-.7-1.25-1.3-2.22-1.79-3.23a4,4,0,0,1,.71-4.58A49.61,49.61,0,0,1,124,41.81a3.14,3.14,0,0,1,1.52-.4c1.23-.2,2.46-.36,4-.57a27.16,27.16,0,0,0-2.09,3.28c-.93,2.06.12,4.08.52,6.06.49,2.38.75,4.68-.6,6.8a23.34,23.34,0,0,1-3.13,3.6c.32-2.75,2.65-5.49-.28-8.4l-6.72,6c2.31,1.42,4.41-.29,6.46.18-.77,3.16-4.77,3.69-7,2.91-1.4-.49-2.68-1.37-4.32-.45-.44.25-1.4-.42-2.54-.81,2-1.38,3.27-2.52,5.27-2.46C117.3,57.62,118.18,55.34,119.93,54.44ZM124.31,44c-1.71-.19-2.3,1.49-3,2.59a3.38,3.38,0,0,0-.18,2.82c.24.6,1.41.81,2.17,1.19a10.87,10.87,0,0,0,.72-2.15C124.16,47.06,124.2,45.62,124.31,44Z"/><path class="cls-1" d="M190.62,43.72c-.24,3.71-1,8.1,4.63,9.36-4,2.1-5.46,2.44-7.68-1.4-.6.44-1.23.84-1.79,1.31-1.37,1.14-4.36,1-5.27-.52a4.32,4.32,0,0,1-.64-2.37c.2-2.35.35-4.81,3.19-5.75a2.07,2.07,0,0,0,.94-.62c.75-.95,1.45-.79,2.52-.4A16.89,16.89,0,0,0,190.62,43.72ZM184,45.08c-.18.76-.37,1.32-.45,1.9a7.66,7.66,0,0,0-.05,1.79c.2,1.91,1.39,2.73,2.74,1.93s1.36-2.18,1.13-3.45c-.09-.53-.82-1-1.37-1.38A11.11,11.11,0,0,0,184,45.08Z"/><path class="cls-1" d="M166.63,51c-1.53,3-4.4,3-6.84,4.09l-.86-2.43a45.63,45.63,0,0,1-4.08,2.27c-1.62.72-2.61.09-3.4-1.44-1.65-3.16.17-5.53,1.66-8a3.47,3.47,0,0,1,3.77-1.87,9.72,9.72,0,0,0,3.25-.29c1.48-.3,1.77.46,1.82,1.67a37.59,37.59,0,0,0,.34,4.87c.41,2.47.81,2.61,3.05,1.56A13.3,13.3,0,0,1,166.63,51Zm-11.47,1.87c3.4-1.32,3.76-2,3.69-7.22l-3.7-.83C153.81,47.55,153.12,50.14,155.16,52.85Z"/><path class="cls-1" d="M60.25,26a2.82,2.82,0,0,1,3.57-.42c1.28.69,2.46,1.59,1.94,3.35-1,3.34-1.91,6.69-3.07,10a5.78,5.78,0,0,0,0,4.68c.48,1,.13,1.36-.94,1.4-3,.12-4.2-1.32-3.34-4.29.93-3.18,2-6.32,3.06-9.48.12-.37.21-.74.3-1.11C62.45,27.44,62.45,27.44,60.25,26Z"/><path class="cls-1" d="M213.33,42.17l-1.42.86c-.69-.46.94-3,2.06-3.17a2.06,2.06,0,0,1,1.45.44,8,8,0,0,1,1.2,1.58c1.82-2.16,4.24-1.62,6.53-1.8a40.24,40.24,0,0,0,5-1s.1.68-.1.79c-2.51,1.41-4.66,3.74-8,3.2a1.15,1.15,0,0,0-.32,0c-.88.07-2-1-2.59.35-.43.92.65,4,1.55,4.38a6,6,0,0,0,1.87.16l.15.43a26.55,26.55,0,0,1-3.86,2.55c-1.44.63-2-.76-2.32-1.76a36.37,36.37,0,0,1-.73-4.44C213.75,44,213.55,43.2,213.33,42.17Z"/><path class="cls-1" d="M37.54,33.3c-1,1.42-4.15,2.21-5,1.38a1.83,1.83,0,0,1-.2-1.61c.72-1.88,1.59-3.7,2.37-5.56.25-.6.39-1.26.71-2.3l-3.88.66c.46-.64.67-1.29,1-1.35a42.38,42.38,0,0,1,5.25-.69c.28,0,.92.9.84,1.28a25.06,25.06,0,0,1-1.22,3.83c-.32.81-.79,1.55-1.18,2.33C35.64,32.47,35.51,33.44,37.54,33.3Z"/></g></g></svg>